<svg id="Group_194" data-name="Group 194" xmlns="http://www.w3.org/2000/svg" xmlns:xlink="http://www.w3.org/1999/xlink" width="44.501" height="44.522" viewBox="0 0 44.501 44.522">
  <defs>
    <clipPath id="clip-path">
      <path id="Path_117" data-name="Path 117" d="M5.218,0A5.462,5.462,0,0,0,3.511.227,4.8,4.8,0,0,0,.518,2.772,4.512,4.512,0,0,0,.072,4.216C.022,4.731.006,5.25.005,5.767Q0,10,0,14.24t0,8.472q0,5.841,0,11.682c0,.921,0,1.842,0,2.763v.283q0,1.092.008,2.185a4.732,4.732,0,0,0,.486,2.04,4.731,4.731,0,0,0,1.241,1.649,5.216,5.216,0,0,0,1.487.862,6.046,6.046,0,0,0,2.158.328h9.227q3.747,0,7.494,0c.151,0,.159-.064.159-.182q0-2.792,0-5.584,0-3.883,0-7.767c0-1.2,0-2.4.007-3.595,0-.157-.046-.193-.2-.192-1.305.006-2.61,0-3.916,0h-.821v-7.4h4.932v-.2q0-2.824,0-5.648a9.751,9.751,0,0,1,.043-1.153A9.775,9.775,0,0,1,23.119,9.9a8.181,8.181,0,0,1,3.163-3.577,8.751,8.751,0,0,1,4.9-1.366c1.369.021,2.739,0,4.108,0h1.778v.409q0,3.394,0,6.788c0,.2,0,.2-.213.2q-2.215,0-4.429,0a5.216,5.216,0,0,0-.655.032,2.387,2.387,0,0,0-1.786,1.216,2.546,2.546,0,0,0-.332,1.383c.007,1.524.006,3.049.007,4.573,0,.2-.051.219.214.219l7.029,0h.163V27.2H29.644V44.523c.119-.007.231-.019.343-.019H32.73q3.177,0,6.354,0a9.626,9.626,0,0,0,1.358-.084,4.707,4.707,0,0,0,1.568-.577,4.625,4.625,0,0,0,1.36-1.149,5.323,5.323,0,0,0,.876-1.641,4.418,4.418,0,0,0,.25-1.46q.005-1,0-1.991v-.254q0-1.244,0-2.488V17.91q0-6.186,0-12.372a8.943,8.943,0,0,0-.093-1.5,4.88,4.88,0,0,0-1.088-2.3A4.51,4.51,0,0,0,42.229.792,5.175,5.175,0,0,0,39.429,0Q35,0,30.571,0H13.466Z" fill="none"/>
    </clipPath>
    <linearGradient id="linear-gradient" y1="1" x2="0.006" y2="1" gradientUnits="objectBoundingBox">
      <stop offset="0" stop-color="#f1f1f1"/>
      <stop offset="1" stop-color="#f1f1f1"/>
    </linearGradient>
  </defs>
  <g id="Group_193" data-name="Group 193" clip-path="url(#clip-path)">
    <rect id="Rectangle_78" data-name="Rectangle 78" width="44.503" height="44.523" transform="translate(-0.001)" fill="url(#linear-gradient)"/>
  </g>
</svg>
