<?xml version="1.0" encoding="UTF-8"?>
<svg id="Layer_2" data-name="Layer 2" xmlns="http://www.w3.org/2000/svg" viewBox="0 0 380.82 87.05">
  <defs>
    <style>
      .cls-1 {
        fill: #f0f0f0;
      }

      .cls-2 {
        fill: #8fbe6c;
      }

      .cls-3 {
        fill: #233b18;
      }

      .cls-4 {
        isolation: isolate;
      }
    </style>
  </defs>
  <g id="Layer_23" data-name="Layer 23">
    <g id="Group_346" data-name="Group 346">
      <g>
        <path id="Path_68" data-name="Path 68" class="cls-1" d="m367.7,70.57l-3-4.28c7.88-5.52,9.96-16.21,10.49-22.09l5.21.48c-1.07,11.71-5.58,20.9-12.7,25.9"/>
        <path d="m367.93,70.88l-.22-.31-.31.22-3.21-4.59.31-.22c7.76-5.44,9.81-16,10.34-21.82l.03-.37,5.96.54-.03.37c-1.08,11.82-5.65,21.11-12.86,26.17Zm-2.7-4.5l2.57,3.67c6.78-4.92,11.1-13.79,12.2-25.04l-4.46-.41c-.59,5.93-2.72,16.22-10.31,21.77Z"/>
      </g>
      <g>
        <path id="Path_72" data-name="Path 72" class="cls-1" d="m123.96,72.08c-1.73-.41-4.41-1.48-7.57-6-4.1-5.87-6.77-12.6-7.82-19.68-.23-1.59-.38-3.2-.53-4.76-.38-4.02-.74-7.83-2.4-11.06-1.93-3.74-5.67-6.65-8.97-9.21l3.21-4.13c3.73,2.9,7.96,6.18,10.42,10.95,2.12,4.13,2.55,8.62,2.95,12.96.15,1.56.29,3.04.5,4.49.93,6.27,3.3,12.24,6.93,17.44,1.03,1.46,2.61,3.46,4.49,3.91l-1.21,5.09Z"/>
        <path d="m124.24,72.53l-.36-.09c-1.79-.43-4.55-1.53-7.79-6.15-4.11-5.88-6.83-12.74-7.88-19.84-.23-1.6-.38-3.21-.53-4.76-.38-4-.73-7.77-2.36-10.94-1.89-3.67-5.59-6.54-8.86-9.08l-.3-.23.22-.3,3.44-4.43.3.23c3.79,2.94,8.04,6.25,10.52,11.07,2.16,4.19,2.58,8.71,2.99,13.09.15,1.56.28,3.02.5,4.48.91,6.18,3.29,12.16,6.86,17.28.99,1.41,2.51,3.34,4.27,3.76l.36.09-1.38,5.82Zm-27.04-51.23c3.26,2.53,6.87,5.4,8.78,9.1,1.7,3.3,2.06,7.13,2.44,11.19.15,1.57.3,3.17.53,4.74,1.03,6.98,3.71,13.73,7.75,19.52,2.87,4.1,5.31,5.29,6.98,5.76l1.04-4.37c-1.85-.62-3.36-2.53-4.35-3.96-3.64-5.22-6.06-11.3-6.99-17.6-.22-1.48-.36-3.02-.5-4.51-.41-4.31-.83-8.76-2.92-12.82-2.35-4.57-6.39-7.78-10.02-10.6l-2.75,3.54Z"/>
      </g>
      <g>
        <path id="Path_78" data-name="Path 78" class="cls-1" d="m258.91,70.41l-1.21-4.98c1.89-.44,3.47-2.39,4.49-3.82,3.62-5.06,5.99-10.9,6.93-17.06.21-1.43.35-2.87.5-4.39.41-4.25.83-8.64,2.95-12.68,2.46-4.67,6.69-7.88,10.42-10.71l3.21,4.04c-3.3,2.51-7.05,5.35-8.97,9.01-1.66,3.16-2.02,6.88-2.4,10.81-.15,1.52-.3,3.1-.53,4.66-1.05,6.94-3.73,13.54-7.82,19.25-3.16,4.42-5.83,5.47-7.57,5.87"/>
        <path d="m258.64,70.86l-1.39-5.71.37-.09c1.76-.41,3.28-2.3,4.27-3.68,3.57-4.99,5.94-10.83,6.86-16.89.21-1.38.34-2.78.49-4.26v-.11c.42-4.28.85-8.71,3.01-12.81,2.49-4.74,6.76-7.98,10.52-10.83l.29-.22.23.28,3.45,4.34-.31.23c-3.28,2.49-6.98,5.3-8.87,8.88-1.63,3.09-1.98,6.77-2.36,10.66-.13,1.37-.29,3.07-.53,4.69-1.06,6.97-3.78,13.68-7.88,19.41-3.24,4.52-6,5.6-7.79,6.02l-.36.08Zm-.48-5.17l1.04,4.26c1.67-.46,4.11-1.61,6.99-5.63,4.03-5.64,6.71-12.24,7.75-19.09.24-1.6.4-3.29.53-4.64.39-3.98.75-7.73,2.44-10.95,1.9-3.62,5.52-6.43,8.77-8.9l-2.74-3.46c-3.63,2.76-7.67,5.89-10.02,10.36-2.09,3.97-2.51,8.33-2.91,12.54v.11c-.16,1.49-.29,2.9-.5,4.3-.94,6.18-3.35,12.13-6.99,17.22-1,1.39-2.5,3.26-4.35,3.87Z"/>
      </g>
      <g>
        <path id="Path_80" data-name="Path 80" class="cls-1" d="m335.72,68.13c-1.73-.38-4.41-1.35-7.57-5.48-4.05-5.25-6.74-11.43-7.82-17.97-.23-1.45-.39-2.93-.53-4.35-.38-3.68-.74-7.15-2.4-10.1-1.93-3.42-5.67-6.07-8.97-8.41l3.21-3.78c3.73,2.64,7.96,5.64,10.42,10,2.12,3.77,2.55,7.87,2.95,11.84.15,1.43.29,2.77.5,4.1.96,5.8,3.34,11.27,6.93,15.93,1.03,1.34,2.61,3.16,4.49,3.57l-1.21,4.66Z"/>
        <path d="m336,68.57l-.35-.08c-1.79-.39-4.55-1.4-7.79-5.62-4.07-5.28-6.8-11.56-7.89-18.14-.24-1.49-.4-3.02-.53-4.37-.37-3.63-.73-7.07-2.35-9.95-1.88-3.34-5.58-5.97-8.85-8.28l-.33-.24.25-.32,3.43-4.04.28.2c3.77,2.67,8.03,5.69,10.53,10.12,2.17,3.85,2.59,7.98,3,11.98.15,1.44.29,2.77.5,4.08.94,5.72,3.31,11.17,6.85,15.76.99,1.29,2.51,3.05,4.27,3.43l.38.08-1.4,5.38Zm-27.01-46.83c3.26,2.31,6.85,4.92,8.75,8.3,1.7,3.02,2.06,6.53,2.45,10.25.14,1.34.29,2.86.53,4.33,1.07,6.46,3.75,12.62,7.74,17.8,2.88,3.76,5.32,4.84,7,5.26l1.02-3.94c-1.84-.57-3.34-2.31-4.33-3.61-3.61-4.69-6.03-10.25-7-16.09-.21-1.33-.35-2.67-.5-4.09-.41-3.96-.82-8.02-2.91-11.73-2.35-4.18-6.4-7.11-10.03-9.68l-2.72,3.2Z"/>
      </g>
      <g>
        <path id="Path_66" data-name="Path 66" class="cls-1" d="m13.11,72.54C5.99,67.55,1.48,58.35.41,46.64l5.21-.48c.54,5.88,2.62,16.56,10.5,22.09l-3.01,4.29Z"/>
        <path d="m13.2,73.06l-.31-.22C5.68,67.79,1.11,58.49.03,46.67l-.03-.37,5.96-.54.03.37c.53,5.81,2.58,16.38,10.34,21.82l.31.22-3.44,4.9ZM.82,46.98c1.1,11.25,5.42,20.11,12.2,25.04l2.58-3.67c-7.59-5.55-9.72-15.84-10.31-21.77l-4.46.41Z"/>
      </g>
      <g>
        <path id="Path_70" data-name="Path 70" class="cls-1" d="m47.29,72.63l-1.21-5.09c1.89-.45,3.47-2.45,4.49-3.91,3.63-5.2,6-11.17,6.93-17.44.21-1.46.35-2.93.5-4.49.41-4.34.83-8.83,2.95-12.96,2.46-4.77,6.68-8.05,10.42-10.95l3.21,4.13c-3.3,2.56-7.05,5.47-8.97,9.21-1.66,3.23-2.02,7.03-2.4,11.06-.15,1.56-.3,3.17-.53,4.76-1.05,7.08-3.72,13.82-7.82,19.68-3.16,4.52-5.83,5.59-7.57,6"/>
        <path d="m47.38,72.99l-.09-.36-.36.09-1.3-5.46.36-.09c1.76-.42,3.28-2.35,4.27-3.76,3.58-5.12,5.95-11.1,6.86-17.28.21-1.4.34-2.83.48-4.33v-.14c.42-4.38.85-8.9,3.01-13.1,2.49-4.85,6.76-8.16,10.52-11.08l.3-.23,3.67,4.73-.3.23c-3.29,2.56-6.99,5.43-8.87,9.09-1.63,3.16-1.98,6.93-2.36,10.91-.13,1.4-.29,3.14-.53,4.79-1.05,7.1-3.77,13.96-7.88,19.84-3.24,4.62-6,5.72-7.79,6.15Zm-.85-5.19l1.04,4.37c1.67-.46,4.11-1.65,6.98-5.76,4.04-5.79,6.72-12.54,7.75-19.52.24-1.64.4-3.36.53-4.74.38-4.07.75-7.9,2.44-11.19,1.9-3.7,5.52-6.57,8.78-9.11l-2.75-3.54c-3.63,2.82-7.66,6.02-10.02,10.6-2.09,4.07-2.51,8.52-2.91,12.82v.14c-.16,1.52-.29,2.95-.5,4.37-.93,6.3-3.35,12.38-6.99,17.6-1,1.42-2.51,3.33-4.35,3.96Z"/>
      </g>
      <g>
        <path id="Path_74" data-name="Path 74" class="cls-1" d="m151.59,71.05l-1.21-5.1c1.89-.45,3.47-2.45,4.49-3.92,3.63-5.22,6-11.2,6.93-17.49.21-1.46.35-2.94.5-4.51.41-4.35.83-8.86,2.95-13,2.46-4.79,6.68-8.08,10.42-10.98l3.21,4.15c-3.3,2.57-7.05,5.48-8.97,9.24-1.66,3.24-2.02,7.05-2.4,11.09-.15,1.56-.3,3.18-.53,4.78-1.04,7.09-3.72,13.85-7.82,19.74-3.16,4.53-5.83,5.6-7.57,6.02"/>
        <path d="m151.68,71.41l-.09-.37-.36.09-1.3-5.46.36-.09c1.76-.42,3.28-2.35,4.27-3.77,3.58-5.14,5.95-11.13,6.86-17.33.21-1.42.34-2.87.49-4.39l.38-.06-.37-.04c.41-4.39.84-8.93,2.99-13.13,2.49-4.86,6.76-8.18,10.52-11.11l.3-.23,3.67,4.74-.29.23c-3.28,2.56-6.98,5.44-8.87,9.11-1.63,3.17-1.98,6.95-2.36,10.94-.13,1.4-.29,3.14-.53,4.8-1.05,7.12-3.77,14-7.88,19.9-3.23,4.62-5.99,5.73-7.79,6.17Zm-.85-5.21l1.04,4.38c1.68-.47,4.12-1.67,6.98-5.77,4.04-5.81,6.72-12.58,7.75-19.58.24-1.64.4-3.37.53-4.76.38-4.08.75-7.92,2.44-11.22,1.91-3.71,5.52-6.59,8.78-9.13l-2.75-3.55c-3.63,2.82-7.66,6.04-10.02,10.63-2.09,4.08-2.51,8.54-2.91,12.86v.09c-.15,1.54-.29,2.99-.5,4.43-.93,6.31-3.35,12.41-6.99,17.65-1,1.43-2.51,3.34-4.35,3.97Z"/>
      </g>
      <g>
        <path id="Path_76" data-name="Path 76" class="cls-1" d="m231.28,68.08c-1.73-.38-4.41-1.35-7.57-5.48-4.05-5.25-6.74-11.43-7.82-17.97-.23-1.45-.39-2.93-.53-4.35-.38-3.68-.74-7.15-2.4-10.1-1.93-3.42-5.67-6.07-8.97-8.41l3.21-3.78c3.73,2.64,7.96,5.64,10.42,10,2.12,3.77,2.55,7.87,2.95,11.84.15,1.43.29,2.77.5,4.1.96,5.8,3.34,11.27,6.93,15.93,1.03,1.34,2.61,3.16,4.49,3.57l-1.21,4.66Z"/>
        <path d="m231.55,68.52l-.35-.08c-1.79-.39-4.55-1.4-7.79-5.62-4.07-5.28-6.8-11.56-7.89-18.14-.24-1.48-.4-3.02-.53-4.37-.37-3.63-.73-7.07-2.35-9.95-1.89-3.35-5.59-5.97-8.86-8.29l-.33-.24,3.7-4.35.28.2c3.77,2.67,8.03,5.69,10.53,10.12,2.17,3.84,2.59,7.98,3,11.98.15,1.45.29,2.77.5,4.08.94,5.72,3.31,11.17,6.85,15.76.99,1.29,2.51,3.05,4.27,3.44l.38.08-1.4,5.38Zm-27.01-46.83c3.25,2.31,6.84,4.92,8.75,8.3,1.7,3.02,2.06,6.53,2.45,10.25.14,1.34.29,2.87.53,4.33,1.07,6.46,3.75,12.62,7.75,17.81,2.88,3.76,5.32,4.84,7,5.26l1.02-3.94c-1.83-.57-3.34-2.31-4.33-3.61-3.61-4.69-6.04-10.25-7-16.09-.21-1.33-.35-2.66-.5-4.08-.41-3.97-.82-8.03-2.91-11.73-2.35-4.18-6.4-7.11-10.03-9.68l-2.72,3.2Z"/>
      </g>
      <path id="Path_89" data-name="Path 89" class="cls-2" d="m42.39,39.37c0,.35-.1.69-.31.98-.18.28-.49.45-.82.44-.46,0-.92-.02-1.37-.04-.33-.02-.66-.04-.98-.08-.52-.07-1.03-.13-1.55-.23-1.12-.22-2.22-.52-3.28-.91-.46-.16-.9-.37-1.33-.57-.48-.22-.96-.44-1.42-.69s-.89-.51-1.32-.79c-1.12-.72-2.16-1.54-3.12-2.47-.39-.38-.78-.77-1.15-1.17-.25-.27-.49-.55-.72-.84-.36-.47-.72-.94-1.05-1.42s-.66-1.01-.96-1.54c-.25-.44-.48-.9-.7-1.35-.48-.98-.87-2.01-1.16-3.06-.14-.52-.28-1.05-.4-1.58-.12-.54-.2-1.08-.25-1.62-.04-.43-.08-.86-.12-1.29-.01-.11-.01-.22-.01-.33,0-.3-.02-.6-.02-.9,0-.14.02-.27.07-.4.12-.33.4-.59.75-.67.24-.07.49-.1.74-.1h4.11c.38-.02.75.16.98.46.16.21.25.47.26.74.01.35.02.71.05,1.06.04.6.12,1.2.26,1.78.13.5.25,1,.39,1.5.09.32.06.66-.08.95-.07.14-.17.27-.29.38-.4.33-.79.67-1.18,1-.35.3-.7.6-1.05.89-.06.05-.07.08-.03.15.19.35.37.7.56,1.04.32.57.68,1.11,1.09,1.62.25.33.51.66.78.98.46.54.95,1.06,1.47,1.54.25.23.49.46.74.67.21.18.44.35.67.51.42.3.83.61,1.26.89.54.36,1.1.68,1.69.95.13.06.13.06.22-.05.47-.59.95-1.18,1.42-1.78.13-.17.26-.34.4-.49.18-.19.43-.32.69-.36.29-.03.57.01.84.12.42.11.84.24,1.27.33.32.07.66.11.99.15.51.07,1.03.1,1.54.12.23,0,.45.04.67.09.42.14.73.52.78.96.02.34.02.69.02,1.03v1.31h0v2.08"/>
      <path id="Path_82" data-name="Path 82" class="cls-3" d="m49.4,68.86c0,9.88-8.01,17.9-17.89,17.9s-17.9-8.01-17.9-17.89c0-9.88,8.01-17.9,17.89-17.9h0c9.88,0,17.89,8.01,17.9,17.89"/>
      <g id="_1" data-name=" 1" class="cls-4">
        <g class="cls-4">
          <path class="cls-1" d="m30.22,79.46v-14.07h-5.46v-3.32c.76.02,1.5-.04,2.22-.17.71-.13,1.35-.37,1.92-.71.57-.34,1.05-.79,1.44-1.35.39-.56.65-1.25.77-2.08h3.5v21.7h-4.4Z"/>
        </g>
      </g>
      <g id="Group_343" data-name="Group 343">
        <path id="Path_90" data-name="Path 90" class="cls-2" d="m95.28,62.47c.05.74-.51,1.38-1.26,1.43-.08,0-.16,0-.24,0-2.46-.04-4.89-.51-7.19-1.37-4.44-1.7-8.16-4.87-10.55-8.98-1.33-2.25-2.21-4.75-2.58-7.34-.14-1-.16-2.02-.24-3.03-.04-.69.49-1.28,1.18-1.32,0,0,0,0,0,0h.03c.55,0,1.1,0,1.65,0,.83,0,1.65-.02,2.48-.02.71-.08,1.35.42,1.43,1.13.01.1.01.21,0,.31,0,1.32.22,2.64.62,3.9.24.6.07,1.3-.43,1.72-.79.75-1.53,1.55-2.31,2.32-.13.09-.16.26-.07.39,0,0,0,0,0,0h0c1.43,2.7,3.51,5,6.04,6.69.26.18.52.36.79.52.35.2.7.39,1.15.63.85-.88,1.7-1.76,2.54-2.64.34-.4.89-.54,1.38-.36,1.35.43,2.76.66,4.17.69.68-.08,1.3.41,1.38,1.09.01.11.01.22,0,.33.01,1.3-.01,2.6,0,3.9"/>
        <path id="Path_91" data-name="Path 91" class="cls-2" d="m91.29,51.55c-.03.32,0,.64,0,1h-8.03v-8.02h1.33v5.69l8.58-8.37.92.96-8.26,8.25.05.11h.35c1.56,0,3.12,0,4.67,0,.31,0,.41.08.38.39"/>
      </g>
      <path id="Path_83" data-name="Path 83" class="cls-3" d="m102.29,17.9c0,9.88-8.01,17.9-17.89,17.9s-17.9-8.01-17.9-17.9S74.51,0,84.4,0h0c9.88,0,17.89,8.01,17.89,17.9"/>
      <g id="_2" data-name=" 2" class="cls-4">
        <g class="cls-4">
          <path class="cls-1" d="m76.95,11.72c.33-1.06.83-1.99,1.49-2.79.66-.8,1.49-1.42,2.5-1.86,1-.44,2.16-.67,3.46-.67.99,0,1.94.16,2.84.46.9.31,1.69.75,2.37,1.33.68.58,1.22,1.29,1.63,2.14.4.85.6,1.8.6,2.85s-.18,2.04-.53,2.82c-.35.79-.82,1.48-1.4,2.09-.58.61-1.24,1.16-1.97,1.66-.73.5-1.47.99-2.22,1.47-.74.49-1.47,1.01-2.17,1.57-.7.56-1.32,1.21-1.86,1.95h10.26v3.78h-15.93c0-1.26.18-2.36.54-3.29s.85-1.76,1.47-2.5,1.35-1.41,2.19-2.03c.84-.62,1.72-1.25,2.65-1.89.48-.33.98-.67,1.52-1.01.54-.34,1.03-.72,1.47-1.13.44-.41.82-.88,1.12-1.4.3-.52.45-1.11.45-1.77,0-1.05-.31-1.88-.92-2.46s-1.39-.88-2.34-.88c-.64,0-1.18.15-1.63.45s-.8.69-1.07,1.18c-.27.49-.46,1.02-.57,1.61-.11.59-.17,1.17-.17,1.75h-4.22c-.04-1.24.1-2.39.43-3.46Z"/>
        </g>
      </g>
      <g id="Group_342" data-name="Group 342">
        <path id="Path_92" data-name="Path 92" class="cls-2" d="m146.41,36.27c1.46-2.31.77-5.36-1.54-6.82s-5.36-.77-6.82,1.54-.77,5.36,1.54,6.82c1.61,1.02,3.66,1.02,5.27,0l3.35,3.39,1.58-1.57-3.38-3.37m-4.2.08c-1.48-.02-2.66-1.23-2.64-2.71.02-1.48,1.23-2.66,2.71-2.64s2.66,1.23,2.64,2.71c-.02,1.45-1.19,2.63-2.64,2.64h-.07"/>
        <path id="Path_93" data-name="Path 93" class="cls-2" d="m141.81,27.04l-2.32.5-.56-.83-4.14,6.74-3.29-3.84-3.95,6.35-1.82-1.31,5.49-8.75,3.27,3.82,4.37-7.1,2.95,4.42"/>
        <path id="Path_94" data-name="Path 94" class="cls-2" d="m149.8,19.57l-5.11,8.07c-.39-.12-.76-.25-1.13-.34s-.73-.14-1.13-.21l5.58-8.85,1.8,1.33"/>
      </g>
      <path id="Path_84" data-name="Path 84" class="cls-3" d="m155.67,69.15c0,9.88-8.01,17.9-17.9,17.9s-17.89-8.01-17.89-17.89,8.01-17.9,17.89-17.9,17.9,8.01,17.9,17.89h0"/>
      <g id="_3" data-name=" 3" class="cls-4">
        <g class="cls-4">
          <path class="cls-1" d="m137.15,66.78c.54-.04,1.04-.16,1.5-.36.47-.2.85-.48,1.15-.85.3-.37.45-.87.45-1.49,0-.93-.31-1.64-.93-2.14-.62-.5-1.33-.74-2.14-.74-1.12,0-1.96.37-2.53,1.1s-.84,1.66-.82,2.77h-4.19c.04-1.12.24-2.13.6-3.05.36-.92.87-1.71,1.52-2.37s1.43-1.17,2.34-1.54c.91-.36,1.92-.54,3.04-.54.87,0,1.74.13,2.6.39.87.26,1.65.65,2.34,1.16.69.52,1.26,1.15,1.69,1.89.43.74.65,1.6.65,2.57,0,1.05-.25,1.98-.76,2.79s-1.27,1.35-2.28,1.64v.06c1.2.27,2.14.85,2.82,1.74.68.89,1.02,1.95,1.02,3.19,0,1.14-.22,2.15-.67,3.04-.44.89-1.04,1.63-1.78,2.23s-1.6,1.05-2.57,1.36c-.97.31-1.98.46-3.04.46-1.22,0-2.33-.18-3.33-.53-1-.35-1.86-.86-2.56-1.53-.7-.67-1.25-1.49-1.63-2.46-.38-.97-.56-2.09-.54-3.35h4.19c.02.58.11,1.13.28,1.66.17.53.4.98.71,1.36s.7.69,1.16.91c.46.23,1.02.34,1.66.34.99,0,1.83-.3,2.51-.91s1.02-1.44,1.02-2.5c0-.83-.16-1.46-.48-1.89-.32-.43-.73-.75-1.22-.95-.5-.2-1.04-.31-1.63-.34-.59-.03-1.15-.05-1.69-.05v-3.1c.48.04.98.04,1.52,0Z"/>
        </g>
      </g>
      <path id="Path_95" data-name="Path 95" class="cls-2" d="m202.86,53.79c-.06-.58-.33-1.12-.77-1.51-1.13-1.14-2.27-2.28-3.41-3.41-2.05-2.05-4.11-4.1-6.15-6.16-.54-.58-1.3-.89-2.09-.86-1.17.02-2.34,0-3.51,0h-3.65c-.26,0-.51.03-.76.09-1.03.26-1.73,1.21-1.68,2.27,0,1.57,0,3.14,0,4.71,0,.75.03,1.5,0,2.25-.07.96.31,1.9,1.03,2.54,2.03,1.97,4.01,3.99,6,5.98l3.43,3.43c.5.56,1.25.84,2,.73.53-.09,1.01-.36,1.37-.76l6.26-6.26c.5-.5,1.01-.99,1.47-1.51.36-.42.53-.98.47-1.54m-18.1-6.45c-.9.03-1.65-.67-1.68-1.56-.03-.9.67-1.65,1.56-1.68h.07c.89,0,1.61.71,1.62,1.6.04.87-.64,1.6-1.51,1.64h-.06"/>
      <path id="Path_85" data-name="Path 85" class="cls-3" d="m209.87,17.9c0,9.88-8.01,17.9-17.9,17.9s-17.89-8.01-17.89-17.9S182.1,0,191.98,0c0,0,0,0,0,0,9.88,0,17.9,8.01,17.9,17.89h0"/>
      <g id="_4" data-name=" 4" class="cls-4">
        <g class="cls-4">
          <path class="cls-1" d="m183.68,23.52v-4.03l9.42-12.65h3.94v13.05h2.88v3.63h-2.88v5.02h-4.19v-5.02h-9.18Zm9.08-11.16l-5.61,7.53h5.7v-7.53h-.09Z"/>
        </g>
      </g>
      <g id="Group_341" data-name="Group 341">
        <path id="Path_101" data-name="Path 101" class="cls-2" d="m232.21,37.39c0-.97-.02-1.92,0-2.86.06-.65.4-1.24.92-1.62.72-.61,1.57-1.06,2.47-1.32,3.28-1.21,6.92-.96,10.01.68.51.32.98.7,1.39,1.13.33.34.51.81.48,1.29v2.7h-15.29Z"/>
        <path id="Path_102" data-name="Path 102" class="cls-2" d="m256.26,37.39h-6.53c0-.14-.02-.25-.02-.37,0-.74,0-1.49,0-2.23.01-1.41-.65-2.74-1.79-3.58-.09-.08-.19-.15-.28-.23-.01-.01-.02-.03-.04-.08.16-.01.3-.03.45-.04,1.63-.06,3.26.19,4.8.73,1.03.3,1.98.84,2.77,1.58.37.32.59.77.63,1.26.04.98.01,1.96.01,2.97"/>
        <path id="Path_103" data-name="Path 103" class="cls-2" d="m248.62,28.65c-1.82,0-3.29-1.47-3.3-3.28,0-1.82,1.47-3.29,3.28-3.3,1.82,0,3.29,1.47,3.3,3.28,0,.01,0,.03,0,.04-.02,1.8-1.48,3.25-3.28,3.26"/>
        <path id="Path_104" data-name="Path 104" class="cls-2" d="m243.14,25.45c-.04,1.8-1.53,3.23-3.33,3.19,0,0,0,0,0,0h-.11c-1.81-.09-3.2-1.63-3.11-3.44s1.63-3.2,3.44-3.11c1.78.09,3.17,1.59,3.12,3.37"/>
      </g>
      <path id="Path_86" data-name="Path 86" class="cls-3" d="m262.14,68.86c0,9.88-8.01,17.9-17.9,17.9s-17.9-8.01-17.9-17.89,8.01-17.9,17.9-17.9h0c9.88,0,17.9,8.01,17.9,17.89h0"/>
      <g id="_5" data-name=" 5" class="cls-4">
        <g class="cls-4">
          <path class="cls-1" d="m241.76,61.39l-.87,4.93.06.06c.6-.6,1.24-1.03,1.92-1.29.68-.26,1.46-.39,2.32-.39,1.07,0,2.03.2,2.85.59.83.39,1.52.92,2.09,1.58s1,1.44,1.3,2.34c.3.9.45,1.85.45,2.87,0,1.12-.22,2.15-.65,3.12s-1.02,1.79-1.75,2.5c-.73.7-1.59,1.25-2.56,1.63s-2,.56-3.1.54c-1.05,0-2.06-.14-3.02-.42-.96-.28-1.81-.71-2.56-1.29s-1.34-1.3-1.78-2.15-.68-1.86-.7-2.99h4.4c.1.99.48,1.78,1.12,2.37.64.59,1.46.88,2.45.88.58,0,1.1-.12,1.57-.36.47-.24.86-.55,1.18-.93.32-.38.57-.83.74-1.33.18-.51.26-1.03.26-1.57s-.08-1.08-.25-1.58-.41-.93-.74-1.3c-.33-.37-.72-.66-1.18-.87-.45-.21-.98-.31-1.58-.31-.79,0-1.43.14-1.92.42s-.96.72-1.4,1.32h-3.97l2.14-12h12.12v3.63h-8.96Z"/>
        </g>
      </g>
      <g id="Group_339" data-name="Group 339">
        <path id="Path_96" data-name="Path 96" class="cls-2" d="m301.04,62.78h-17.71v-.47c0-.58-.02-1.17,0-1.75.04-.8.43-1.53,1.07-2.01,1.05-.82,2.25-1.42,3.54-1.75,1.28-.37,2.59-.59,3.92-.66,1.13-.03,2.26.09,3.35.36,1.22.23,2.4.64,3.51,1.2.64.32,1.22.76,1.7,1.29.41.46.64,1.06.62,1.68-.02.7,0,1.39,0,2.12"/>
        <path id="Path_97" data-name="Path 97" class="cls-2" d="m287.74,48.55c.03-1.55.85-2.98,2.17-3.79l.09.03v.93c0,.37.2.58.52.59.29.01.53-.21.55-.5h0s0-.05,0-.07c.01-.42,0-.84.02-1.26.02-.1.08-.18.17-.23.59-.16,1.22-.18,1.81-.04.19.04.27.12.26.33-.02.39-.02.78-.02,1.18s.19.6.53.6.52-.2.53-.58c.01-.31,0-.63,0-1.02,1.36.79,2.22,2.23,2.27,3.81.1,0,.17.01.24.02.31,0,.56.25.56.56s-.25.56-.56.56h-.02c-.58.01-1.17.02-1.75.02-.59,0-1.19-.02-1.78-.02-1.88,0-3.77,0-5.65.02-.52,0-.77-.18-.76-.56-.01-.3.22-.56.52-.57h.29"/>
        <path id="Path_98" data-name="Path 98" class="cls-2" d="m306.4,49.63c-.29-.12-.53-.2-.77-.31-.16-.07-.33-.06-.48.03-.33.12-.54.44-.51.79,0,.12-.04.24-.05.37,0,.15-.11.27-.25.27h0s-.03,0-.05,0c-.47,0-.94.02-1.4,0-.12-.03-.22-.12-.27-.23-.06-.15-.08-.32-.07-.48.02-.3-.16-.58-.44-.68-.18-.11-.39-.12-.58-.04-.96.38-.7.41-1.23-.42-.13-.21-.24-.43-.38-.64-.11-.12-.11-.3,0-.41.02-.02.05-.04.07-.05.1-.07.19-.17.3-.23.31-.14.48-.48.41-.82,0-.18-.08-.35-.23-.45-.18-.11-.33-.26-.5-.38-.13-.07-.17-.22-.11-.35,0-.01.02-.03.03-.04.23-.4.46-.8.68-1.2.05-.14.2-.21.33-.16.03,0,.05.02.07.04.11.04.21.08.31.14.34.23.8.18,1.08-.12.06-.05.1-.12.11-.2.04-.24.07-.49.1-.74.02-.2.11-.3.33-.3.45.02.9.01,1.35,0,.15-.02.3.08.32.23h0s0,.03,0,.04c.03.13.05.26.06.39-.03.34.18.66.5.77.13.09.3.1.44.03.19-.1.39-.15.58-.24.13-.09.31-.05.4.08.01.02.02.04.03.06.22.4.45.8.69,1.19.08.1.07.25-.03.33,0,0-.02.01-.03.02-.09.08-.19.16-.29.23-.33.16-.51.51-.44.87,0,.18.09.34.23.45.84.67.75.4.27,1.28-.13.23-.26.47-.41.69-.06.08-.14.14-.22.2m-1.43-2.71c.02-.75-.57-1.38-1.32-1.4,0,0,0,0,0,0h0c-.75,0-1.36.61-1.37,1.36-.02.73.55,1.35,1.29,1.37,0,0,0,0,0,0h.06c.74,0,1.35-.59,1.36-1.34"/>
        <path id="Path_99" data-name="Path 99" class="cls-2" d="m296.38,50.7c-.58,2.34-2.95,3.78-5.29,3.2-1.58-.39-2.81-1.62-3.2-3.2h8.49Z"/>
        <path id="Path_100" data-name="Path 100" class="cls-2" d="m304.15,52.63c-.11.1-.21.2-.32.28-.23.11-.38.36-.36.61.02.28.2.36.36.46.25.17.3.33.12.59-.13.19-.24.39-.33.6-.04.15-.19.24-.34.21-.04-.01-.08-.03-.11-.06-.06-.03-.12-.05-.19-.08-.43-.2-.75-.01-.81.47-.01.1-.04.19-.04.28,0,.17-.09.23-.26.23-.31,0-.61.02-.92,0-.1-.02-.18-.09-.23-.18-.04-.1-.06-.2-.05-.31-.05-.48-.36-.67-.8-.49-.09.04-.18.07-.27.11-.11.07-.26.04-.33-.08-.01-.02-.02-.03-.02-.05-.14-.26-.29-.52-.44-.77-.09-.1-.08-.26.03-.35t0,0s.04-.03.06-.04c.07-.05.14-.1.21-.16.26-.13.36-.44.23-.7-.05-.1-.13-.18-.23-.23-.08-.06-.14-.13-.22-.18-.11-.06-.15-.19-.1-.3,0-.01.02-.03.03-.04.15-.27.3-.53.45-.8.04-.12.17-.18.29-.14.02,0,.04.02.06.03.1.05.21.09.32.13.26.12.57,0,.69-.27,0,0,0,0,0,0,.02-.05.03-.1.04-.15q.1-.6.7-.61h.06q.68,0,.8.64c.05.28.32.47.6.42.04,0,.08-.02.12-.04.66-.29.54-.25.84.27.13.21.24.43.38.68m-2.76,1.7c.47.02.88-.34.9-.81h0v-.05c.02-.48-.36-.89-.84-.91,0,0,0,0,0,0h-.03c-.5,0-.91.39-.92.89,0,.48.37.88.85.88h.04"/>
      </g>
      <path id="Path_87" data-name="Path 87" class="cls-3" d="m313.26,17.9c0,9.88-8.01,17.9-17.9,17.9s-17.9-8.01-17.9-17.9S285.48,0,295.36,0c0,0,0,0,0,0,9.88,0,17.9,8.01,17.9,17.89h0"/>
      <g id="_6" data-name=" 6" class="cls-4">
        <g class="cls-4">
          <path class="cls-1" d="m297.68,10.53c-.52-.54-1.16-.81-1.92-.81s-1.44.23-1.97.7c-.53.46-.95,1.03-1.26,1.71-.31.67-.54,1.39-.68,2.15-.15.76-.23,1.45-.25,2.05l.06.06c.6-.87,1.3-1.49,2.11-1.86s1.74-.56,2.79-.56c.93,0,1.84.2,2.73.6.89.4,1.64.95,2.26,1.63.58.66,1,1.42,1.27,2.26.27.85.4,1.71.4,2.57,0,1.12-.18,2.15-.54,3.12s-.88,1.8-1.55,2.51c-.67.71-1.47,1.27-2.4,1.67-.93.4-1.96.6-3.1.6-1.63,0-2.99-.33-4.06-.98-1.08-.65-1.93-1.5-2.57-2.56s-1.08-2.25-1.33-3.58-.37-2.69-.37-4.08.16-2.69.47-4.03c.31-1.34.81-2.56,1.49-3.64.68-1.08,1.56-1.97,2.63-2.65,1.08-.68,2.39-1.02,3.94-1.02.93,0,1.8.13,2.6.4.81.27,1.52.66,2.14,1.16.62.51,1.13,1.13,1.52,1.88.39.74.65,1.6.78,2.57h-4.19c-.14-.72-.48-1.35-.99-1.89Zm-3.71,7.08c-.44.22-.81.51-1.1.88s-.51.8-.65,1.29c-.15.49-.22,1-.22,1.54,0,.5.08.99.23,1.47.15.49.38.92.68,1.3.3.38.67.69,1.1.91.43.23.93.34,1.49.34s1.01-.11,1.41-.34c.4-.23.75-.53,1.04-.9s.51-.8.65-1.27c.14-.47.22-.96.22-1.46s-.07-1.02-.2-1.5c-.13-.49-.34-.92-.6-1.3-.27-.38-.62-.69-1.04-.93-.42-.24-.91-.36-1.47-.36s-1.09.11-1.54.33Z"/>
        </g>
      </g>
      <g id="Group_340" data-name="Group 340">
        <path id="Path_105" data-name="Path 105" class="cls-2" d="m352.75,24.94l1.71-1.7,2.54,2.54,5.11-5.08.21.21,1.46,1.42c.05.05.05.08,0,.13-.51.5-1.02,1.01-1.52,1.52l-2.2,2.2-2.05,2.05-.9.9s-.07.1-.1.09-.07-.06-.1-.1l-1.98-1.99-2.09-2.09s-.07-.07-.1-.09"/>
        <path id="Path_106" data-name="Path 106" class="cls-2" d="m354.46,32.86l2.54,2.54,5.1-5.08c.05.05.1.09.15.14l1.53,1.49s.05.06,0,.1c-.58.57-1.15,1.15-1.72,1.72l-1.9,1.9c-.71.71-1.42,1.42-2.13,2.13l-.92.92s-.06.07-.1.11l-4.26-4.29,1.7-1.69Z"/>
        <rect id="Rectangle_65" data-name="Rectangle 65" class="cls-2" x="339.76" y="34.01" width="10.84" height="2.41"/>
        <path id="Path_107" data-name="Path 107" class="cls-2" d="m339.76,26.8v-2.41h10.83c0,.09.01.17.01.25v2.05c0,.11,0,.1-.11.1h-10.73Z"/>
      </g>
      <path id="Path_88" data-name="Path 88" class="cls-3" d="m369.7,68.86c0,9.88-8.01,17.9-17.9,17.9s-17.9-8.01-17.9-17.89,8.01-17.9,17.9-17.9h0c9.88,0,17.9,8.01,17.9,17.89h0"/>
      <g id="_7" data-name=" 7" class="cls-4">
        <g class="cls-4">
          <path class="cls-1" d="m355.91,65.2c-.88,1.45-1.61,2.99-2.2,4.62-.59,1.63-1.04,3.29-1.36,4.96-.32,1.67-.49,3.23-.51,4.68h-4.71c.25-3.24,1.01-6.37,2.28-9.36,1.27-3,2.94-5.75,5.01-8.25h-10.29v-4.09h14.82v3.78c-1.14.99-2.14,2.21-3.02,3.66Z"/>
        </g>
      </g>
    </g>
  </g>
</svg>