<svg id="Group_201" data-name="Group 201" xmlns="http://www.w3.org/2000/svg" xmlns:xlink="http://www.w3.org/1999/xlink" width="44.494" height="44.523" viewBox="0 0 44.494 44.523">
  <defs>
    <clipPath id="clip-path">
      <path id="Path_118" data-name="Path 118" d="M53.164,61.086a7.183,7.183,0,1,1,7.175,6.794,7.237,7.237,0,0,1-7.175-6.794m-4.968-.47A12.232,12.232,0,1,0,60.82,48.365c-.11,0-.218,0-.327,0A12.216,12.216,0,0,0,48.2,60.616" transform="translate(-48.195 -48.361)" fill="none"/>
    </clipPath>
    <linearGradient id="linear-gradient" x1="-0.494" y1="1.491" x2="-0.484" y2="1.491" gradientUnits="objectBoundingBox">
      <stop offset="0" stop-color="#f1f1f1"/>
      <stop offset="1" stop-color="#f1f1f1"/>
    </linearGradient>
    <clipPath id="clip-path-2">
      <path id="Path_119" data-name="Path 119" d="M12.549,39.991a7.779,7.779,0,0,1-7.573-5.328,9.06,9.06,0,0,1-.447-2.88C4.486,26.691,4.51,21.6,4.508,16.507c0-1.306-.023-2.613-.011-3.92a8.039,8.039,0,0,1,8.054-8.057c3.228-.021,6.455,0,9.683,0v.015c3.228,0,6.455-.012,9.683,0A7.783,7.783,0,0,1,39.49,9.873a9.089,9.089,0,0,1,.447,2.88c.042,5.092.019,10.184.021,15.276,0,1.306.023,2.613.011,3.92A8.026,8.026,0,0,1,31.914,40q-3.353.011-6.7.01-6.33,0-12.66-.022M15.848,0q-1.348,0-2.7.021A13,13,0,0,0,3.926,3.7,12.747,12.747,0,0,0,.06,12.075C.012,12.651,0,13.23,0,13.81v.1c0,.482.008.965.007,1.446C0,20.639.017,25.922,0,31.206A12.746,12.746,0,0,0,2.86,39.64a12.268,12.268,0,0,0,9.209,4.786c1.723.075,3.449.073,5.175.071q.9,0,1.8,0,4.337.018,8.673.026h.551q1.41,0,2.82-.005a16.058,16.058,0,0,0,2.633-.231,12.534,12.534,0,0,0,8.434-5.324,13.172,13.172,0,0,0,2.334-7.65c.019-3.17,0-6.34,0-9.509h-.007c0-1.134.02-2.267,0-3.4-.053-2.475.042-4.969-.235-7.42a12.138,12.138,0,0,0-5.79-8.923A12.7,12.7,0,0,0,31.188.036q-4.293.006-8.586,0C20.393.032,18.184,0,15.976,0Z" fill="none"/>
    </clipPath>
    <linearGradient id="linear-gradient-2" x1="0" y1="1" x2="0.005" y2="1" xlink:href="#linear-gradient"/>
    <clipPath id="clip-path-3">
      <path id="Path_120" data-name="Path 120" d="M138.018,33.935a3.068,3.068,0,0,0-3.127,3.25,3,3,0,0,0,2.936,2.887,3.117,3.117,0,0,0,3.22-3.114,3.071,3.071,0,0,0-3.013-3.023h-.015" transform="translate(-134.89 -33.935)" fill="none"/>
    </clipPath>
    <linearGradient id="linear-gradient-3" x1="-5.537" y1="6.576" x2="-5.496" y2="6.576" xlink:href="#linear-gradient"/>
  </defs>
  <g id="Group_196" data-name="Group 196" transform="translate(9.999 10.035)">
    <g id="Group_195" data-name="Group 195" clip-path="url(#clip-path)">
      <rect id="Rectangle_79" data-name="Rectangle 79" width="24.616" height="24.633" transform="translate(-0.057 0)" fill="url(#linear-gradient)"/>
    </g>
  </g>
  <g id="Group_198" data-name="Group 198">
    <g id="Group_197" data-name="Group 197" clip-path="url(#clip-path-2)">
      <rect id="Rectangle_80" data-name="Rectangle 80" width="44.527" height="44.523" transform="translate(-0.008)" fill="url(#linear-gradient-2)"/>
    </g>
  </g>
  <g id="Group_200" data-name="Group 200" transform="translate(30.65 7.711)">
    <g id="Group_199" data-name="Group 199" clip-path="url(#clip-path-3)">
      <rect id="Rectangle_81" data-name="Rectangle 81" width="6.176" height="6.14" transform="translate(-0.015 0)" fill="url(#linear-gradient-3)"/>
    </g>
  </g>
</svg>
