<svg xmlns="http://www.w3.org/2000/svg" width="89.551" height="80.568" viewBox="0 0 89.551 80.568">
  <g id="Group_353" data-name="Group 353" transform="translate(-13626.674 -1775.846)">
    <path id="Path_129" data-name="Path 129" d="M116.347,80.573V71.549h35.645c0-.781,0-1.462,0-2.143.023-9.277.079-18.555.046-27.832a44.18,44.18,0,0,0-.505-6.807,30.019,30.019,0,0,0-9.459-17.746A31.065,31.065,0,0,0,122.2,8.732a28.86,28.86,0,0,0-16.053,3.606c-8.5,4.739-14.032,11.853-15.852,21.554a40.478,40.478,0,0,0-.6,7.016c-.089,8.5-.07,17.008-.1,25.512a6.071,6.071,0,0,1-.1.7c-3.609-.027-7.278.536-10.323-2.211a9.452,9.452,0,0,1-3.054-7.239c-.049-2.589-.079-5.18-.058-7.77a9.284,9.284,0,0,1,4.073-8.141,1.753,1.753,0,0,0,.485-1.272,40.45,40.45,0,0,1,8.671-25.168,40.149,40.149,0,0,1,63.814.982,40.5,40.5,0,0,1,7.879,23.315,2.664,2.664,0,0,0,1.221,2.373,7.644,7.644,0,0,1,3.331,6.429c.019,3.286.031,6.572.07,9.857a8.531,8.531,0,0,1-3.9,7.47,1.734,1.734,0,0,0-.641,1.181c-.072,1.658-.038,3.322-.027,4.983.029,4.4-4.026,8.7-9.2,8.66-8.771-.065-17.544,0-26.316,0-3.007,0-6.014,0-9.182,0" transform="translate(13550.614 1775.84)" fill="#fff"/>
    <path id="Path_130" data-name="Path 130" d="M115.058,57.482a24.621,24.621,0,0,1,8.55-21.362c8.3-7.345,17.894-9.333,28.212-5.325,9.209,3.578,14.653,10.669,16.724,20.642-14.347-.544-24.622-7.28-31.814-19.621-3.087,12.231-10.22,20.763-21.672,25.666" transform="translate(13529.752 1760.421)" fill="#fff"/>
    <path id="Path_131" data-name="Path 131" d="M133.959,91.2a4.469,4.469,0,0,1,4.615-4.478,4.588,4.588,0,0,1,4.432,4.591,4.524,4.524,0,1,1-9.047-.113" transform="translate(13519.566 1729.34)" fill="#fff"/>
    <path id="Path_132" data-name="Path 132" d="M196.178,86.785a4.51,4.51,0,1,1-.022,9.02,4.649,4.649,0,0,1-4.552-4.487,4.535,4.535,0,0,1,4.574-4.533" transform="translate(13488.655 1729.306)" fill="#fff"/>
  </g>
</svg>
