<?xml version="1.0" encoding="UTF-8"?>
<svg id="Layer_2" data-name="Layer 2" xmlns="http://www.w3.org/2000/svg" viewBox="0 0 756 756">
  <defs>
    <style>
      .cls-1 {
        fill: #1b3c13;
      }

      .cls-2 {
        fill: #82c260;
      }
    </style>
  </defs>
  <g id="Layer_23" data-name="Layer 23">
    <g>
      <path class="cls-1" d="m756,0v626.58c0,71.48-57.94,129.42-129.42,129.42H0V129.42C0,57.94,57.94,0,129.42,0h626.58Z"/>
      <path class="cls-2" d="m756,0v375.58c-1.82-1.34-3.61-2.72-5.38-4.13-40.71-32.51-66.81-82.56-66.81-138.72s26.09-106.22,66.81-138.73c.2-.16.4-.32.6-.47-.2-.02-.4-.04-.6-.06-45.77-4.29-84.29-33.54-101.82-73.98-2.7-6.25-4.91-12.76-6.56-19.49h113.76Z"/>
      <path class="cls-2" d="m122.95,756H0v-163.54c29.14,4.98,51.31,30.37,51.31,60.93,0,16.51-6.47,31.5-17.01,42.59,1.54-.08,3.09-.12,4.64-.12,38.99,0,72.12,25.16,84.01,60.14Z"/>
    </g>
  </g>
</svg>