<svg id="Group_203" data-name="Group 203" xmlns="http://www.w3.org/2000/svg" xmlns:xlink="http://www.w3.org/1999/xlink" width="44.502" height="44.501" viewBox="0 0 44.502 44.501">
  <defs>
    <clipPath id="clip-path">
      <path id="Path_121" data-name="Path 121" d="M6.219,17.632h.194q3.209,0,6.418,0c.164,0,.2.042.2.2q-.008,4.172,0,8.343,0,5.992,0,11.985V38.3H6.219ZM24.7,20.157a6.691,6.691,0,0,1,1.207-1.3,7.283,7.283,0,0,1,3.65-1.63,5.967,5.967,0,0,1,1.726.025,8.878,8.878,0,0,1,1.742.412,8.23,8.23,0,0,1,1.578.81A6.989,6.989,0,0,1,36.5,20.137,8.161,8.161,0,0,1,38.28,24.8c.036,1.684.038,3.368.041,5.052.006,2.792,0,5.583,0,8.375v.084H31.444c0-.062-.008-.118-.008-.175q0-5.72,0-11.439a6.643,6.643,0,0,0-.1-1.353,3.358,3.358,0,0,0-1.314-2.027,3.3,3.3,0,0,0-1.656-.626,3.231,3.231,0,0,0-1.6.186A3.625,3.625,0,0,0,25,24.342a3.738,3.738,0,0,0-.489,2.074q0,2.021,0,4.043,0,3.778,0,7.556v.28H17.641V17.632h.165q3.265,0,6.53,0c.158,0,.194.047.192.2-.01.706-.005,1.412-.01,2.118,0,.161-.021.322-.007.494.064-.094.129-.187.192-.282M9.611,13.718A4.1,4.1,0,0,1,5.468,9.556a4.123,4.123,0,1,1,8.246.095,4.086,4.086,0,0,1-4.075,4.068H9.611M5.229,0A5.471,5.471,0,0,0,3.507.228,5.27,5.27,0,0,0,1.957,1,4.984,4.984,0,0,0,.819,2.213,4.8,4.8,0,0,0,.131,3.876,8.488,8.488,0,0,0,0,5.74c.011,2.829,0,5.658,0,8.487s0,5.658,0,8.487q0,6.177,0,12.354c0,.7,0,1.393,0,2.09v.3q0,.705.006,1.41A9.821,9.821,0,0,0,.1,40.42,4.748,4.748,0,0,0,1.19,42.755a9.1,9.1,0,0,0,.8.736,3.678,3.678,0,0,0,1.138.642,5.892,5.892,0,0,0,2.246.366q2.578,0,5.157,0h3.683l12.626,0h3.819q4.244,0,8.487,0a8.957,8.957,0,0,0,1.309-.088,4.739,4.739,0,0,0,1.566-.581,4.625,4.625,0,0,0,1.347-1.14,5.312,5.312,0,0,0,.877-1.64,4.395,4.395,0,0,0,.251-1.459c.008-1.754,0-3.508,0-5.262V22.259h0q0-.273,0-.545,0-4.011.006-8.022,0-.981,0-1.962V10.456q0-2.5-.007-4.994a8.293,8.293,0,0,0-.092-1.42,4.913,4.913,0,0,0-1.1-2.316A4.51,4.51,0,0,0,42.219.786,5.21,5.21,0,0,0,39.4,0q-4.412,0-8.824,0H13.588Z" transform="translate(0 0.001)" fill="none"/>
    </clipPath>
    <linearGradient id="linear-gradient" y1="1" x2="0.006" y2="1" gradientUnits="objectBoundingBox">
      <stop offset="0" stop-color="#f1f1f1"/>
      <stop offset="1" stop-color="#f1f1f1"/>
    </linearGradient>
  </defs>
  <g id="Group_202" data-name="Group 202" transform="translate(0 0)" clip-path="url(#clip-path)">
    <rect id="Rectangle_82" data-name="Rectangle 82" width="45" height="44" transform="translate(0 0.008)" fill="url(#linear-gradient)"/>
  </g>
</svg>
