<svg id="Group_192" data-name="Group 192" xmlns="http://www.w3.org/2000/svg" xmlns:xlink="http://www.w3.org/1999/xlink" width="25.188" height="36" viewBox="0 0 25.188 36">
  <defs>
    <clipPath id="clip-path">
      <path id="Path_115" data-name="Path 115" d="M17.086,12.6a4.491,4.491,0,1,1-4.472-4.5,4.47,4.47,0,0,1,4.472,4.5M12.563,0c-.464,0-.928.021-1.389.064A12.134,12.134,0,0,0,9.129.459,12.814,12.814,0,0,0,6.557,1.515a11.816,11.816,0,0,0-1.98,1.338,13.869,13.869,0,0,0-1.432,1.39A11.839,11.839,0,0,0,1.857,5.988,11.7,11.7,0,0,0,.363,9.54,13.117,13.117,0,0,0,0,12.535a15.687,15.687,0,0,0,.128,1.838,13.593,13.593,0,0,0,.265,1.36,19.069,19.069,0,0,0,.721,2.421A28.614,28.614,0,0,0,2.43,21.2c.332.656.665,1.311,1.024,1.951.548.977,1.1,1.956,1.687,2.906.551.885,1.153,1.738,1.745,2.6.561.814,1.124,1.627,1.714,2.42.576.774,1.177,1.53,1.786,2.28.719.885,1.457,1.754,2.2,2.642.033-.03.052-.043.067-.06.191-.22.388-.437.572-.663.6-.73,1.2-1.456,1.779-2.2.745-.944,1.519-1.865,2.207-2.853.77-1.1,1.567-2.189,2.3-3.319q1.012-1.557,1.915-3.178c.34-.611.676-1.225.995-1.848a26.73,26.73,0,0,0,1.4-3.077c.215-.6.454-1.184.64-1.788a14.966,14.966,0,0,0,.629-2.865c.055-.532.1-1.064.1-1.6v-.064q0-.229-.013-.459a13.887,13.887,0,0,0-.284-2.218,11.711,11.711,0,0,0-1.971-4.46,11.923,11.923,0,0,0-2.848-2.9c-.51-.355-1.037-.688-1.569-1.008a9.11,9.11,0,0,0-.882-.425A11.465,11.465,0,0,0,14.4.127,12.166,12.166,0,0,0,12.9,0l-.261,0Z" transform="translate(0)" fill="none"/>
    </clipPath>
    <linearGradient id="linear-gradient" y1="1" x2="0.007" y2="1" gradientUnits="objectBoundingBox">
      <stop offset="0" stop-color="#f1f1f1"/>
      <stop offset="1" stop-color="#f1f1f1"/>
    </linearGradient>
  </defs>
  <g id="Group_191" data-name="Group 191" clip-path="url(#clip-path)">
    <rect id="Rectangle_77" data-name="Rectangle 77" width="25.189" height="36" transform="translate(-0.001)" fill="url(#linear-gradient)"/>
  </g>
</svg>
