<?xml version="1.0" encoding="UTF-8"?>
<svg id="Layer_2" data-name="Layer 2" xmlns="http://www.w3.org/2000/svg" viewBox="0 0 1907.63 1017">
  <defs>
    <style>
      .cls-1 {
        font-size: 183.46px;
      }

      .cls-1, .cls-2 {
        font-family: Helvetica-Bold, Helvetica;
        font-weight: 700;
      }

      .cls-2 {
        font-size: 254.49px;
      }
    </style>
  </defs>
  <g id="Layer_23" data-name="Layer 23">
    <g>
      <path d="m791,673.5c0-78.73,36.76-148.87,94.06-194.2-88.03-7.81-157.06-81.74-157.06-171.8,0-80.94,55.75-148.85,130.95-167.45C767.74,53.27,644.34,0,508.5,0c-108.5,0-209.05,33.99-291.61,91.88,10.03-1.24,20.25-1.88,30.61-1.88,136.69,0,247.5,110.81,247.5,247.5,0,78.73-36.76,148.87-94.06,194.2,88.03,7.81,157.06,81.74,157.06,171.8,0,95.27-77.23,172.5-172.5,172.5s-172.5-77.23-172.5-172.5c0-46.06,18.05-87.9,47.47-118.84-4.29.22-8.62.34-12.97.34-112.39,0-207.27-74.92-237.45-177.54C3.46,440.12,0,473.9,0,508.5c0,280.84,227.66,508.5,508.5,508.5,144.44,0,274.81-60.23,367.38-156.93-52.01-45.37-84.88-112.13-84.88-186.57Z"/>
      <text class="cls-1" transform="translate(959.63 731.13)"><tspan x="0" y="0">Designs</tspan></text>
      <text class="cls-2" transform="translate(953.63 579.23)"><tspan x="0" y="0">Earthly</tspan></text>
    </g>
  </g>
</svg>