<svg id="Layer_23" data-name="Layer 23" xmlns="http://www.w3.org/2000/svg" width="210.336" height="123" viewBox="0 0 210.336 123">
  <g id="Group_7" data-name="Group 7">
    <path id="Path_4" data-name="Path 4" d="M95.667,81.456a29.877,29.877,0,0,1,11.376-23.487,20.864,20.864,0,0,1-3.158-41.03,61.51,61.51,0,0,0-77.653-5.826,29.935,29.935,0,0,1,22.26,53.194A20.862,20.862,0,1,1,31.5,70.711q-.778.04-1.569.041A29.944,29.944,0,0,1,1.215,49.28a61.506,61.506,0,0,0,104.717,54.74A29.862,29.862,0,0,1,95.667,81.456Z" fill="#f1f1f1"/>
    <text id="Designs" transform="translate(116.061 85.427)" fill="#f1f1f1" font-size="19" font-family="Helvetica-Bold, Helvetica" font-weight="700"><tspan x="0" y="0">Designs</tspan></text>
    <text id="Earthly" transform="translate(115.336 67.226)" fill="#f1f1f1" font-size="28" font-family="Helvetica-Bold, Helvetica" font-weight="700"><tspan x="0" y="0">Earthly</tspan></text>
  </g>
</svg>
