<svg id="Group_190" data-name="Group 190" xmlns="http://www.w3.org/2000/svg" xmlns:xlink="http://www.w3.org/1999/xlink" width="44.984" height="36" viewBox="0 0 44.984 36">
  <defs>
    <clipPath id="clip-path">
      <path id="Path_114" data-name="Path 114" d="M22.569,15.73q3.117-1.948,6.231-3.9,2.54-1.591,5.083-3.18,1.763-1.1,3.527-2.2c.675-.423,1.345-.855,2.02-1.28.339-.214.683-.421,1.036-.639,0,.055.007.1.007.148q0,2.081,0,4.161a.238.238,0,0,1-.131.232c-.711.441-1.415.891-2.125,1.334-.862.538-1.728,1.071-2.59,1.609q-1.671,1.043-3.338,2.09L26.6,17.664q-1.985,1.241-3.971,2.482a.205.205,0,0,1-.258,0c-1.2-.753-2.4-1.5-3.6-2.246q-3.588-2.242-7.173-4.487-2.183-1.365-4.369-2.726c-.879-.547-1.763-1.087-2.641-1.634a.2.2,0,0,1-.081-.15c0-.822,0-1.645,0-2.467q0-.869,0-1.738V4.555a.755.755,0,0,1,.1.041q1.35.841,2.7,1.683c.873.548,1.742,1.1,2.616,1.65,1.178.738,2.36,1.471,3.54,2.209q3.018,1.887,6.034,3.776,1.466.916,2.94,1.818a.132.132,0,0,0,.066.015.143.143,0,0,0,.072-.017M39.242,0C38.7,0,38.15.007,37.6.007H14.4c-2.365,0-4.731-.006-7.1,0-1.022,0-2.043.021-3.065.033A4.193,4.193,0,0,0,2.475.476,4.025,4.025,0,0,0,1.36,1.31a4.548,4.548,0,0,0-.622.751A4.483,4.483,0,0,0,.03,4.477C.022,6.526.023,8.575.019,10.624q0,2.037-.009,4.073Q0,20.91,0,27.123q0,2.416.026,4.832a3.3,3.3,0,0,0,.35,1.375,4.662,4.662,0,0,0,1.363,1.72,4.478,4.478,0,0,0,1.846.852,5.729,5.729,0,0,0,1.161.092c2.122.008,4.244,0,6.366,0l6.731,0h4.629v0H35.726c1.51,0,3.021,0,4.531-.01a5.441,5.441,0,0,0,1.626-.215,4.466,4.466,0,0,0,3.1-4.343q0-3.081,0-6.162,0-5.819,0-11.637,0-2.475,0-4.95V7.662q0-1.476,0-2.952a6.226,6.226,0,0,0-.08-1.06,4.209,4.209,0,0,0-.971-2.023A4.252,4.252,0,0,0,41.591.159,6.927,6.927,0,0,0,40.262.01C39.954,0,39.645,0,39.337,0Z" transform="translate(0)" fill="none"/>
    </clipPath>
    <linearGradient id="linear-gradient" y1="1" x2="0.005" y2="1" gradientUnits="objectBoundingBox">
      <stop offset="0" stop-color="#f1f1f1"/>
      <stop offset="1" stop-color="#f1f1f1"/>
    </linearGradient>
  </defs>
  <g id="Group_189" data-name="Group 189" clip-path="url(#clip-path)">
    <rect id="Rectangle_76" data-name="Rectangle 76" width="44.984" height="36.003" transform="translate(0)" fill="url(#linear-gradient)"/>
  </g>
</svg>
