<svg id="Group_188" data-name="Group 188" xmlns="http://www.w3.org/2000/svg" xmlns:xlink="http://www.w3.org/1999/xlink" width="35.994" height="36" viewBox="0 0 35.994 36">
  <defs>
    <clipPath id="clip-path">
      <rect id="Rectangle_75" data-name="Rectangle 75" width="35.994" height="36" fill="#f1f1f1"/>
    </clipPath>
  </defs>
  <g id="Group_187" data-name="Group 187" clip-path="url(#clip-path)">
    <path id="Path_113" data-name="Path 113" d="M35.993,33.688a2.678,2.678,0,0,1-.5,1.592,1.571,1.571,0,0,1-1.34.719c-.748-.008-1.5-.033-2.243-.071-.535-.027-1.071-.07-1.6-.138-.844-.108-1.688-.219-2.525-.369a35.031,35.031,0,0,1-5.359-1.484c-.744-.26-1.462-.6-2.179-.931-.781-.359-1.561-.725-2.316-1.133-.737-.4-1.455-.835-2.16-1.287a32.722,32.722,0,0,1-5.092-4.024Q9.709,25.63,8.79,24.65c-.411-.437-.8-.9-1.169-1.373-.59-.763-1.178-1.529-1.719-2.326-.553-.815-1.07-1.656-1.561-2.51-.413-.718-.777-1.465-1.142-2.21a28.378,28.378,0,0,1-1.887-5c-.235-.852-.454-1.71-.647-2.573A21.149,21.149,0,0,1,.256,6.012c-.066-.7-.137-1.4-.2-2.1C.039,3.732.037,3.554.033,3.377.019,2.888-.005,2.4,0,1.911a1.923,1.923,0,0,1,.11-.646A1.768,1.768,0,0,1,1.332.165,4.171,4.171,0,0,1,2.534,0c2.237,0,4.474,0,6.711.006a1.914,1.914,0,0,1,1.6.757,2.059,2.059,0,0,1,.428,1.2c.022.579.03,1.16.083,1.737a18.78,18.78,0,0,0,.419,2.909c.206.816.412,1.632.629,2.445a2.153,2.153,0,0,1-.131,1.552,1.818,1.818,0,0,1-.47.611c-.649.538-1.291,1.086-1.934,1.632-.571.484-1.138.972-1.712,1.452-.092.077-.115.122-.05.24.313.562.6,1.137.914,1.7a20.957,20.957,0,0,0,1.766,2.638c.414.538.826,1.079,1.266,1.6a28.2,28.2,0,0,0,2.407,2.508c.4.369.794.748,1.209,1.1.349.3.717.571,1.088.84.679.493,1.353.994,2.052,1.455a21.842,21.842,0,0,0,2.752,1.553c.212.1.213.1.36-.082q1.161-1.447,2.32-2.9c.216-.27.422-.549.652-.807a1.932,1.932,0,0,1,1.127-.59,3.032,3.032,0,0,1,1.371.192c.687.186,1.371.389,2.065.543.53.118,1.073.176,1.612.251a23.686,23.686,0,0,0,2.52.19,4.983,4.983,0,0,1,1.1.154,1.887,1.887,0,0,1,1.272,1.573c.031.561.027,1.124.032,1.686,0,.359,0,.718,0,1.077s0,.71,0,1.065h0c0,1.134,0,2.267,0,3.4" transform="translate(0 -0.001)" fill="#f1f1f1"/>
  </g>
</svg>
